<?xml version="1.0" encoding="UTF-8" standalone="no"?>
<!DOCTYPE svg PUBLIC "-//W3C//DTD SVG 1.1//EN"
 "http://www.w3.org/Graphics/SVG/1.1/DTD/svg11.dtd">
<!-- Generated by graphviz version 5.0.0 (20220707.1540)
 -->
<!-- Title: dependencies Pages: 1 -->
<svg width="226pt" height="247pt"
 viewBox="0.00 0.00 226.00 246.80" xmlns="http://www.w3.org/2000/svg" xmlns:xlink="http://www.w3.org/1999/xlink">
<g id="graph0" class="graph" transform="scale(1 1) rotate(0) translate(4 242.8)">
<title>dependencies</title>
<polygon fill="white" stroke="transparent" points="-4,4 -4,-242.8 222,-242.8 222,4 -4,4"/>
<text text-anchor="middle" x="109" y="-8.2" font-family="sans-serif" font-size="14.00">dependencies</text>
<g id="clust1" class="cluster">
<title>cluster_CaslModule</title>
<polygon fill="none" stroke="black" stroke-dasharray="1,5" points="8,-32.8 8,-230.8 210,-230.8 210,-32.8 8,-32.8"/>
</g>
<g id="clust4" class="cluster">
<title>cluster_CaslModule_exports</title>
<polygon fill="none" stroke="black" points="38,-170.8 38,-222.8 180,-222.8 180,-170.8 38,-170.8"/>
</g>
<g id="clust6" class="cluster">
<title>cluster_CaslModule_providers</title>
<polygon fill="none" stroke="black" points="16,-40.8 16,-92.8 202,-92.8 202,-40.8 16,-40.8"/>
</g>
<!-- CaslAbilityFactory  -->
<g id="node1" class="node">
<title>CaslAbilityFactory </title>
<polygon fill="#fb8072" stroke="black" points="172.32,-214.8 45.68,-214.8 45.68,-178.8 172.32,-178.8 172.32,-214.8"/>
<text text-anchor="middle" x="109" y="-192.6" font-family="Times,serif" font-size="14.00">CaslAbilityFactory </text>
</g>
<!-- CaslModule -->
<g id="node2" class="node">
<title>CaslModule</title>
<polygon fill="#8dd3c7" stroke="black" points="151.44,-149.8 148.44,-153.8 127.44,-153.8 124.44,-149.8 66.56,-149.8 66.56,-113.8 151.44,-113.8 151.44,-149.8"/>
<text text-anchor="middle" x="109" y="-127.6" font-family="Times,serif" font-size="14.00">CaslModule</text>
</g>
<!-- CaslModule&#45;&gt;CaslAbilityFactory  -->
<g id="edge1" class="edge">
<title>CaslModule&#45;&gt;CaslAbilityFactory </title>
<path fill="none" stroke="black" stroke-dasharray="5,2" d="M109,-149.91C109,-149.91 109,-168.79 109,-168.79"/>
<polygon fill="black" stroke="black" points="105.5,-168.79 109,-178.79 112.5,-168.79 105.5,-168.79"/>
</g>
<!-- CaslAbilityFactory -->
<g id="node3" class="node">
<title>CaslAbilityFactory</title>
<ellipse fill="#fdb462" stroke="black" cx="109" cy="-66.8" rx="85.13" ry="18"/>
<text text-anchor="middle" x="109" y="-62.6" font-family="Times,serif" font-size="14.00">CaslAbilityFactory</text>
</g>
<!-- CaslAbilityFactory&#45;&gt;CaslModule -->
<g id="edge2" class="edge">
<title>CaslAbilityFactory&#45;&gt;CaslModule</title>
<path fill="none" stroke="black" d="M109,-84.91C109,-84.91 109,-103.79 109,-103.79"/>
<polygon fill="black" stroke="black" points="105.5,-103.79 109,-113.79 112.5,-103.79 105.5,-103.79"/>
</g>
</g>
</svg>
